<svg width="30" height="30" viewBox="0 0 30 30" fill="none" xmlns="http://www.w3.org/2000/svg">
<path d="M16.6899 1.68627C16.6899 0.754968 15.9348 0 15.0034 0C14.0719 0 13.3168 0.754968 13.3168 1.68627V13.3028H1.68649C0.755033 13.3028 -6.2999e-05 14.0578 -6.2999e-05 14.9891C-6.2999e-05 15.9204 0.755033 16.6754 1.68649 16.6754H13.3168V28.3137C13.3168 29.245 14.0719 30 15.0034 30C15.9348 30 16.6899 29.245 16.6899 28.3137V16.6754H28.3134C29.2449 16.6754 30 15.9204 30 14.9891C30 14.0578 29.2449 13.3028 28.3134 13.3028H16.6899V1.68627Z" fill="white"/>
</svg>
